<?xml version="1.0" encoding="UTF-8"?>
<!DOCTYPE svg PUBLIC "-//W3C//DTD SVG 1.1//EN" "http://www.w3.org/Graphics/SVG/1.1/DTD/svg11.dtd">
<!-- Creator: CorelDRAW 2018 (64-Bit) -->
<svg xmlns="http://www.w3.org/2000/svg" xml:space="preserve" width="51.6814mm" height="19.3156mm" version="1.1" style="shape-rendering:geometricPrecision; text-rendering:geometricPrecision; image-rendering:optimizeQuality; fill-rule:evenodd; clip-rule:evenodd"
viewBox="0 0 196.65 73.5"
 xmlns:xlink="http://www.w3.org/1999/xlink">
 <defs>
  <style type="text/css">
   <![CDATA[
    .fil0 {fill:black}
   ]]>
  </style>
 </defs>
 <g id="Слой_x0020_1">
  <metadata id="CorelCorpID_0Corel-Layer"/>
  <path class="fil0" d="M150.77 43.84l-19.29 -36.05c-0.78,-1.15 -1.32,-1.1 -1.61,-2.31 2.46,-0.71 10.79,-0.45 13.09,0.5 1.53,0.63 11.98,20.63 13.44,23.35 0.87,1.62 1.18,3.85 2.86,4.98 2.98,-1.52 16.91,-17.5 17.72,-19.57 -0.89,-0.72 -1.18,-0.6 -2.45,-0.73 -4.9,-0.51 -18.32,-1.57 -21.73,-0.75 -0.51,0.15 -0.89,0.85 -0.44,2.08 -0.05,0.09 -0.28,0.34 -0.49,-0.05l-5.06 -15.04c5.39,-0.84 16.7,0.67 22.55,0.87 5.02,0.16 11.97,0.87 16.94,0.35 1.64,-0.17 3.55,-0.77 5.29,-0.85 1.03,1.28 5.04,10.7 5.07,12.51 -3,1.35 -3.28,1.85 -4.89,4.26 -1.29,1.93 -2.41,3.48 -3.9,5.37 -6.47,8.22 -10.55,12.31 -17.54,19.62 -3.03,3.16 -6.17,5.76 -9.45,9.48 -2.61,-1.24 -1.25,-0.75 -4.16,-4.66 -2.63,-3.53 -1.29,-2.19 -5.94,-3.36zm-137.06 3.92c1.26,-1.02 3.25,-4.76 4.74,-7.02l4.61 -7.3c0.6,-2.28 -7.77,-12.63 -9.88,-14.16 -1.21,2.11 -0.27,24.3 0.53,28.48zm16.69 -4.29c-2.43,2.33 -4.52,8.67 -5.62,10.24l-9.96 0.32c-0.12,1.76 0.39,3.3 1.12,4.54 0.89,1.53 1.75,1.62 3.08,2.58 -2.04,1.09 -5.33,2.99 -7.31,4.2 -2.53,1.55 -5.34,3.32 -7.26,-0.03 -3.85,-6.71 -3.54,-31.19 -3.68,-39.89 -0.14,-8.97 0.61,-9.71 -0.78,-20.22 1.68,-1.55 9.14,-4.78 12.18,-5.03l0.98 1.92 3.63 -0.95 7.81 9.97c1.37,1.85 6.26,9.5 7.64,10.35 1.41,-0.71 5.98,-7.61 7.77,-9.92 1.39,-1.79 2.46,-3.16 3.9,-4.93 4.49,-5.54 0.34,-6.59 16.41,-4.6 0.44,-0.12 1.04,-0.35 0.89,-0.16 -1.96,2.57 -1.28,3.81 2.06,6.82 5.73,5.17 4.96,3.54 9.36,0.79 7.78,-4.86 20.91,-6.64 29.88,-6.7 3.19,-0.02 11.22,0 14.16,1.42l9.07 6.65 6.75 8.95c4.79,12.81 -1.93,28.68 -13.69,35.79 -1.2,0.73 -2.5,1.23 -3.38,2.34 1.5,3 9.74,8.97 12.38,10.91 -0.12,2.17 -1.44,3.38 -2.67,4.67 -1.45,-0.37 -10.1,-9.76 -11.74,-11.51 -1.94,-2.07 -1.8,-2.5 -5.39,-1.47 -7.71,2.2 -10.53,3.98 -17.89,-1.1 -1.03,-0.71 -1.13,-1.13 -2.12,-1.93 -2.2,-1.78 -0.08,0.23 -2.46,-0.75 -1.39,-0.57 -2.34,-2.53 -6.76,-4.95 -3.49,-1.9 -7.57,-6.31 -10.06,-9.72 -3.92,-5.36 -6.25,-11.17 -5.75,-18.08 0.23,-3.19 1.21,-4.23 1.61,-6.45 -3.62,-3.92 -6.96,-5.64 -8.75,-8.38l-0.24 0.25c-1.96,2.14 -4,4.81 -5.78,7.08 -2.1,2.67 -9.18,12.3 -11.11,14.13 1.06,3.92 12.48,17.31 15.23,19.91 5.89,5.57 10.3,6.86 18.58,5.44 2.62,-0.45 5.19,-1.88 7.44,-1.94 -2.33,2.61 -8.23,4.8 -9.91,5.69 -5.48,2.93 -11.84,8.29 -19.22,4.84 -5.66,-2.65 -11.73,-10.12 -15.62,-15.32 -0.98,-1.31 -3.43,-5.21 -4.82,-5.75zm47.6 -21.1c1.38,1.85 3,3.54 4.83,5.17l5.24 4.86c2.5,2.48 13.25,11.93 16.08,13.83 3.05,2.05 4.25,0.94 6.59,-0.71 3.74,-2.64 7.44,-6.05 9.56,-10.29 2.39,-4.77 3.87,-10.4 3.06,-16.88 -0.3,-2.42 -2.76,-2.94 -6.05,-3.92 -10.67,-3.19 -33.16,-1 -39.31,7.94zm-2.52 3.76c-4.48,6.03 0.83,17.14 4,21.29 3.79,4.97 15.49,5.43 20.9,3.11 0.88,-0.38 1.37,-0.38 0.72,-1.24 -3.28,-4.36 -22.05,-21.94 -25.62,-23.16zm55.5 31.48c2.35,-1.31 5.82,-1.98 9.67,-2.35 14,-1.34 29.96,-1.2 43.92,-0.07 3.53,0.28 3,2.11 4.08,5.46 0.59,1.83 2.13,5.68 1.75,7.94l-12.71 -1.46c-10.31,-0.82 -31.59,-0.83 -40.52,2.4 0.06,1.11 0.12,2.22 0.18,3.33 -2.11,-1.55 -6.44,-13.72 -6.38,-15.24z"/>
 </g>
</svg>
