<?xml version="1.0" encoding="UTF-8"?>
<!DOCTYPE svg PUBLIC "-//W3C//DTD SVG 1.0//EN" "http://www.w3.org/TR/2001/REC-SVG-20010904/DTD/svg10.dtd">
<!-- Creator: CorelDRAW 2018 (64-Bit) -->
<svg xmlns="http://www.w3.org/2000/svg" xml:space="preserve" width="18.3575mm" height="6.6702mm" version="1.0" style="shape-rendering:geometricPrecision; text-rendering:geometricPrecision; image-rendering:optimizeQuality; fill-rule:evenodd; clip-rule:evenodd"
viewBox="0 0 9757.31 3545.32"
 xmlns:xlink="http://www.w3.org/1999/xlink">
 <defs>
  <style type="text/css">
  </style>
 </defs>
 <g id="Слой_x0020_1">
  <metadata id="CorelCorpID_0Corel-Layer"/>
  <path style="fill:#ffffff" d="M2296.79 2785.09l-468 702.03 -1741.57 -270.01 432.02 -702.03 -67.5 -1818.1 702.03 -630.01 1156.53 337.51 -584.99 584.99 -513.02 -162.01 67.5 1471.61 -283.51 297.01 1300.51 189.01zm2214.14 94.5l-868.55 607.52 -1282.55 -378.01 0 -2389.64 949.5 -661.52 1201.6 337.51 0 2484.15zm-1404.11 -2065.63l0 1719.08 657.06 198.04 0 -1719.08 -657.06 -198.04zm4320.22 -580.52l-652.54 670.56 -1089.02 -112.52 0 1035.07 324.01 -580.52 1129.58 0 0 1701.06 -783.08 535.5 -1417.55 -373.5 0 -2524.65 765.06 -508.5 1723.55 157.49zm-1741.57 1750.6l0 567.02 706.54 184.49 0 -751.51 -706.54 0zm4018.69 895.55l-868.55 607.52 -1282.55 -378.01 0 -2389.64 949.5 -661.52 1201.6 337.51 0 2484.15zm-1404.11 -2065.63l0 1719.08 657.06 198.04 0 -1719.08 -657.06 -198.04z"/>
 </g>
</svg>
